<?xml version="1.0" encoding="utf-8"?>
<svg width="680px" height="250px" viewBox="0 0 680 250" version="1.1"
	xmlns="http://www.w3.org/2000/svg" xmlns:xlink="http://www.w3.org/1999/xlink">
	<style type="text/css">
		.st0{opacity:0.5;}
		.st1{fill:#4D616E;}
		.st2{opacity:0.5;fill:#4D616E;enable-background:new ;}
		.st3{fill:#56B3B4;}
		.st4{fill:#EA5E5E;}
		.st5{fill:#FBBF47;}
		.st6{fill:#C693C6;}
	</style>
	<g id="key">
		<g id="prettier-wide-dark">
			<g id="Wide-logo-_x28_Dark_x29_">
				<g id="line-13" transform="translate(90.000000, 240.000000)" class="st0">
					<path id="line-13-path-4" class="st1"
						d="M315,0h50c2.8,0,5,2.2,5,5l0,0c0,2.8-2.2,5-5,5h-50c-2.8,0-5-2.2-5-5l0,0
					C310,2.2,312.2,0,315,0z" />
					<path id="line-13-path-3" class="st1"
						d="M215,0h80c2.8,0,5,2.2,5,5l0,0c0,2.8-2.2,5-5,5h-80c-2.8,0-5-2.2-5-5l0,0
					C210,2.2,212.2,0,215,0z" />
					<path id="line-13-path-2" class="st1"
						d="M85,0h110c2.8,0,5,2.2,5,5l0,0c0,2.8-2.2,5-5,5H85c-2.8,0-5-2.2-5-5l0,0
					C80,2.2,82.2,0,85,0z" />
					<path id="line-13-path-1" class="st1"
						d="M5,0h60c2.8,0,5,2.2,5,5l0,0c0,2.8-2.2,5-5,5H5c-2.8,0-5-2.2-5-5l0,0C0,2.2,2.2,0,5,0z
					" />
				</g>
				<g id="line-12" transform="translate(60.000000, 220.000000)">
					<path id="line-12-path-6" class="st2"
						d="M355,0h100c2.8,0,5,2.2,5,5l0,0c0,2.8-2.2,5-5,5H355c-2.8,0-5-2.2-5-5l0,0
					C350,2.2,352.2,0,355,0z" />
					<path id="line-12-path-5" class="st3"
						d="M285,0h50c2.8,0,5,2.2,5,5l0,0c0,2.8-2.2,5-5,5h-50c-2.8,0-5-2.2-5-5l0,0
					C280,2.2,282.2,0,285,0z" />
					<path id="line-12-path-4" class="st4"
						d="M205,0h60c2.8,0,5,2.2,5,5l0,0c0,2.8-2.2,5-5,5h-60c-2.8,0-5-2.2-5-5l0,0
					C200,2.2,202.2,0,205,0z" />
					<path id="line-12-path-3" class="st2"
						d="M165,0h20c2.8,0,5,2.2,5,5l0,0c0,2.8-2.2,5-5,5h-20c-2.8,0-5-2.2-5-5l0,0
					C160,2.2,162.2,0,165,0z" />
					<path id="line-12-path-2" class="st2"
						d="M105,0h40c2.8,0,5,2.2,5,5l0,0c0,2.8-2.2,5-5,5h-40c-2.8,0-5-2.2-5-5l0,0
					C100,2.2,102.2,0,105,0z" />
					<path id="line-12-path-1" class="st2"
						d="M5,0h80c2.8,0,5,2.2,5,5l0,0c0,2.8-2.2,5-5,5H5c-2.8,0-5-2.2-5-5l0,0C0,2.2,2.2,0,5,0z
					" />
				</g>
				<g id="line-11" transform="translate(110.000000, 200.000000)">
					<path id="line-11-path-5" class="st2"
						d="M305,0h110c2.8,0,5,2.2,5,5l0,0c0,2.8-2.2,5-5,5H305c-2.8,0-5-2.2-5-5l0,0
					C300,2.2,302.2,0,305,0z" />
					<path id="line-11-path-4" class="st4"
						d="M235,0h50c2.8,0,5,2.2,5,5l0,0c0,2.8-2.2,5-5,5h-50c-2.8,0-5-2.2-5-5l0,0
					C230,2.2,232.2,0,235,0z" />
					<path id="line-11-path-3" class="st5"
						d="M195,0h20c2.8,0,5,2.2,5,5l0,0c0,2.8-2.2,5-5,5h-20c-2.8,0-5-2.2-5-5l0,0
					C190,2.2,192.2,0,195,0z" />
					<path id="line-11-path-2" class="st3"
						d="M155,0h20c2.8,0,5,2.2,5,5l0,0c0,2.8-2.2,5-5,5h-20c-2.8,0-5-2.2-5-5l0,0
					C150,2.2,152.2,0,155,0z" />
					<path id="line-11-path-1" class="st2"
						d="M5,0h130c2.8,0,5,2.2,5,5l0,0c0,2.8-2.2,5-5,5H5c-2.8,0-5-2.2-5-5l0,0C0,2.2,2.2,0,5,0
					z" />
				</g>
				<g id="line-10" transform="translate(65.000000, 180.000000)">
					<path id="line-10-path-6" class="st2"
						d="M350,0h170c2.8,0,5,2.2,5,5l0,0c0,2.8-2.2,5-5,5H350c-2.8,0-5-2.2-5-5l0,0
					C345,2.2,347.2,0,350,0z" />
					<path id="line-10-path-5" class="st3"
						d="M260,0h70c2.8,0,5,2.2,5,5l0,0c0,2.8-2.2,5-5,5h-70c-2.8,0-5-2.2-5-5l0,0
					C255,2.2,257.2,0,260,0z" />
					<path id="line-10-path-4" class="st2"
						d="M130,0h50c2.8,0,5,2.2,5,5l0,0c0,2.8-2.2,5-5,5h-50c-2.8,0-5-2.2-5-5l0,0
					C125,2.2,127.2,0,130,0z" />
					<path id="line-10-path-3" class="st6"
						d="M200,0h40c2.8,0,5,2.2,5,5l0,0c0,2.8-2.2,5-5,5h-40c-2.8,0-5-2.2-5-5l0,0
					C195,2.2,197.2,0,200,0z" />
					<path id="line-10-path-2" class="st2"
						d="M100,0h10c2.8,0,5,2.2,5,5l0,0c0,2.8-2.2,5-5,5h-10c-2.8,0-5-2.2-5-5l0,0
					C95,2.2,97.2,0,100,0z" />
					<path id="line-10-path-1" class="st2"
						d="M5,0h75c2.8,0,5,2.2,5,5l0,0c0,2.8-2.2,5-5,5H5c-2.8,0-5-2.2-5-5l0,0C0,2.2,2.2,0,5,0z
					" />
				</g>
				<g id="line-9" transform="translate(80.000000, 160.000000)">
					<path id="line-9-path-7" class="st2"
						d="M505,0h30c2.8,0,5,2.2,5,5l0,0c0,2.8-2.2,5-5,5h-30c-2.8,0-5-2.2-5-5l0,0
					C500,2.2,502.2,0,505,0z" />
					<path id="line-9-path-6" class="st2"
						d="M405,0h80c2.8,0,5,2.2,5,5l0,0c0,2.8-2.2,5-5,5h-80c-2.8,0-5-2.2-5-5l0,0
					C400,2.2,402.2,0,405,0z" />
					<path id="line-9-path-5" class="st2"
						d="M245,0h140c2.8,0,5,2.2,5,5l0,0c0,2.8-2.2,5-5,5H245c-2.8,0-5-2.2-5-5l0,0
					C240,2.2,242.2,0,245,0z" />
					<path id="line-9-path-4" class="st5"
						d="M215,0h10c2.8,0,5,2.2,5,5l0,0c0,2.8-2.2,5-5,5h-10c-2.8,0-5-2.2-5-5l0,0
					C210,2.2,212.2,0,215,0z" />
					<path id="line-9-path-3" class="st6"
						d="M185,0h10c2.8,0,5,2.2,5,5l0,0c0,2.8-2.2,5-5,5h-10c-2.8,0-5-2.2-5-5l0,0
					C180,2.2,182.2,0,185,0z" />
					<path id="line-9-path-2" class="st2"
						d="M65,0h100c2.8,0,5,2.2,5,5l0,0c0,2.8-2.2,5-5,5H65c-2.8,0-5-2.2-5-5l0,0
					C60,2.2,62.2,0,65,0z" />
					<path id="line-9-path-1" class="st2"
						d="M5,0h40c2.8,0,5,2.2,5,5l0,0c0,2.8-2.2,5-5,5H5c-2.8,0-5-2.2-5-5l0,0C0,2.2,2.2,0,5,0z"
					/>
				</g>
				<g id="line-8" transform="translate(30.000000, 140.000000)">
					<path id="line-8-path-8" class="st2"
						d="M485,0h120c2.8,0,5,2.2,5,5l0,0c0,2.8-2.2,5-5,5H485c-2.8,0-5-2.2-5-5l0,0
					C480,2.2,482.2,0,485,0z" />
					<path id="line-8-path-7" class="st2"
						d="M375,0h90c2.8,0,5,2.2,5,5l0,0c0,2.8-2.2,5-5,5h-90c-2.8,0-5-2.2-5-5l0,0
					C370,2.2,372.2,0,375,0z" />
					<path id="line-8-path-6" class="st6"
						d="M355,0L355,0c2.8,0,5,2.2,5,5l0,0c0,2.8-2.2,5-5,5l0,0c-2.8,0-5-2.2-5-5l0,0
					C350,2.2,352.2,0,355,0z" />
					<path id="line-8-path-5" class="st4"
						d="M295,0h40c2.8,0,5,2.2,5,5l0,0c0,2.8-2.2,5-5,5h-40c-2.8,0-5-2.2-5-5l0,0
					C290,2.2,292.2,0,295,0z" />
					<path id="line-8-path-4" class="st3"
						d="M235,0h40c2.8,0,5,2.2,5,5l0,0c0,2.8-2.2,5-5,5h-40c-2.8,0-5-2.2-5-5l0,0
					C230,2.2,232.2,0,235,0z" />
					<path id="line-8-path-3" class="st2"
						d="M175,0h40c2.8,0,5,2.2,5,5l0,0c0,2.8-2.2,5-5,5h-40c-2.8,0-5-2.2-5-5l0,0
					C170,2.2,172.2,0,175,0z" />
					<path id="line-8-path-2" class="st2"
						d="M75,0h80c2.8,0,5,2.2,5,5l0,0c0,2.8-2.2,5-5,5H75c-2.8,0-5-2.2-5-5l0,0
					C70,2.2,72.2,0,75,0z" />
					<path id="line-8-path-1" class="st2"
						d="M5,0h50c2.8,0,5,2.2,5,5l0,0c0,2.8-2.2,5-5,5H5c-2.8,0-5-2.2-5-5l0,0C0,2.2,2.2,0,5,0z"
					/>
				</g>
				<g id="line-7" transform="translate(20.000000, 120.000000)">
					<path id="line-7-path-9" class="st2"
						d="M575,0h60c2.8,0,5,2.2,5,5l0,0c0,2.8-2.2,5-5,5h-60c-2.8,0-5-2.2-5-5l0,0
					C570,2.2,572.2,0,575,0z" />
					<path id="line-7-path-8" class="st2"
						d="M545,0h10c2.8,0,5,2.2,5,5l0,0c0,2.8-2.2,5-5,5h-10c-2.8,0-5-2.2-5-5l0,0
					C540,2.2,542.2,0,545,0z" />
					<path id="line-7-path-7" class="st2"
						d="M385,0h140c2.8,0,5,2.2,5,5l0,0c0,2.8-2.2,5-5,5H385c-2.8,0-5-2.2-5-5l0,0
					C380,2.2,382.2,0,385,0z" />
					<path id="line-7-path-6" class="st3"
						d="M325,0h40c2.8,0,5,2.2,5,5l0,0c0,2.8-2.2,5-5,5h-40c-2.8,0-5-2.2-5-5l0,0
					C320,2.2,322.2,0,325,0z" />
					<path id="line-7-path-5" class="st5"
						d="M275,0h30c2.8,0,5,2.2,5,5l0,0c0,2.8-2.2,5-5,5h-30c-2.8,0-5-2.2-5-5l0,0
					C270,2.2,272.2,0,275,0z" />
					<path id="line-7-path-4" class="st4"
						d="M245,0h10c2.8,0,5,2.2,5,5l0,0c0,2.8-2.2,5-5,5h-10c-2.8,0-5-2.2-5-5l0,0
					C240,2.2,242.2,0,245,0z" />
					<path id="line-7-path-3" class="st2"
						d="M205,0h20c2.8,0,5,2.2,5,5l0,0c0,2.8-2.2,5-5,5h-20c-2.8,0-5-2.2-5-5l0,0
					C200,2.2,202.2,0,205,0z" />
					<path id="line-7-path-2" class="st2"
						d="M105,0h80c2.8,0,5,2.2,5,5l0,0c0,2.8-2.2,5-5,5h-80c-2.8,0-5-2.2-5-5l0,0
					C100,2.2,102.2,0,105,0z" />
					<path id="line-7-path-1" class="st2"
						d="M5,0h80c2.8,0,5,2.2,5,5l0,0c0,2.8-2.2,5-5,5H5c-2.8,0-5-2.2-5-5l0,0C0,2.2,2.2,0,5,0z"
					/>
				</g>
				<g id="line-6" transform="translate(0.000000, 100.000000)">
					<path id="line-6-path-6" class="st2"
						d="M455,0h140c2.8,0,5,2.2,5,5l0,0c0,2.8-2.2,5-5,5H455c-2.8,0-5-2.2-5-5l0,0
					C450,2.2,452.2,0,455,0z" />
					<path id="line-6-path-5" class="st2"
						d="M405,0h30c2.8,0,5,2.2,5,5l0,0c0,2.8-2.2,5-5,5h-30c-2.8,0-5-2.2-5-5l0,0
					C400,2.2,402.2,0,405,0z" />
					<path id="line-6-path-4" class="st5"
						d="M325,0h60c2.8,0,5,2.2,5,5l0,0c0,2.8-2.2,5-5,5h-60c-2.8,0-5-2.2-5-5l0,0
					C320,2.2,322.2,0,325,0z" />
					<path id="line-6-path-3" class="st6"
						d="M265,0h40c2.8,0,5,2.2,5,5l0,0c0,2.8-2.2,5-5,5h-40c-2.8,0-5-2.2-5-5l0,0
					C260,2.2,262.2,0,265,0z" />
					<path id="line-6-path-2" class="st2"
						d="M145,0h100c2.8,0,5,2.2,5,5l0,0c0,2.8-2.2,5-5,5H145c-2.8,0-5-2.2-5-5l0,0
					C140,2.2,142.2,0,145,0z" />
					<path id="line-6-path-1" class="st2"
						d="M5,0h120c2.8,0,5,2.2,5,5l0,0c0,2.8-2.2,5-5,5H5c-2.8,0-5-2.2-5-5l0,0C0,2.2,2.2,0,5,0z
					" />
				</g>
				<g id="line-5" transform="translate(10.000000, 80.000000)">
					<path id="line-5-path-9" class="st2"
						d="M475,0h190c2.8,0,5,2.2,5,5l0,0c0,2.8-2.2,5-5,5H475c-2.8,0-5-2.2-5-5l0,0
					C470,2.2,472.2,0,475,0z" />
					<path id="line-5-path-8" class="st2"
						d="M445,0h10c2.8,0,5,2.2,5,5l0,0c0,2.8-2.2,5-5,5h-10c-2.8,0-5-2.2-5-5l0,0
					C440,2.2,442.2,0,445,0z" />
					<path id="line-5-path-7" class="st2"
						d="M375,0h50c2.8,0,5,2.2,5,5l0,0c0,2.8-2.2,5-5,5h-50c-2.8,0-5-2.2-5-5l0,0
					C370,2.2,372.2,0,375,0z" />
					<path id="line-5-path-6" class="st2"
						d="M315,0h40c2.8,0,5,2.2,5,5l0,0c0,2.8-2.2,5-5,5h-40c-2.8,0-5-2.2-5-5l0,0
					C310,2.2,312.2,0,315,0z" />
					<path id="line-5-path-5" class="st5"
						d="M255,0h40c2.8,0,5,2.2,5,5l0,0c0,2.8-2.2,5-5,5h-40c-2.8,0-5-2.2-5-5l0,0
					C250,2.2,252.2,0,255,0z" />
					<path id="line-5-path-4" class="st2"
						d="M225,0h10c2.8,0,5,2.2,5,5l0,0c0,2.8-2.2,5-5,5h-10c-2.8,0-5-2.2-5-5l0,0
					C220,2.2,222.2,0,225,0z" />
					<path id="line-5-path-3" class="st2"
						d="M155,0h50c2.8,0,5,2.2,5,5l0,0c0,2.8-2.2,5-5,5h-50c-2.8,0-5-2.2-5-5l0,0
					C150,2.2,152.2,0,155,0z" />
					<path id="line-5-path-2" class="st2"
						d="M105,0h30c2.8,0,5,2.2,5,5l0,0c0,2.8-2.2,5-5,5h-30c-2.8,0-5-2.2-5-5l0,0
					C100,2.2,102.2,0,105,0z" />
					<path id="line-5-path-1" class="st2"
						d="M5,0h80c2.8,0,5,2.2,5,5l0,0c0,2.8-2.2,5-5,5H5c-2.8,0-5-2.2-5-5l0,0C0,2.2,2.2,0,5,0z"
					/>
				</g>
				<g id="line-4" transform="translate(30.000000, 60.000000)">
					<path id="line-4-path-8" class="st2"
						d="M515,0h80c2.8,0,5,2.2,5,5l0,0c0,2.8-2.2,5-5,5h-80c-2.8,0-5-2.2-5-5l0,0
					C510,2.2,512.2,0,515,0z" />
					<path id="line-4-path-7" class="st2"
						d="M415,0h80c2.8,0,5,2.2,5,5l0,0c0,2.8-2.2,5-5,5h-80c-2.8,0-5-2.2-5-5l0,0
					C410,2.2,412.2,0,415,0z" />
					<path id="line-4-path-6" class="st2"
						d="M385,0h10c2.8,0,5,2.2,5,5l0,0c0,2.8-2.2,5-5,5h-10c-2.8,0-5-2.2-5-5l0,0
					C380,2.2,382.2,0,385,0z" />
					<path id="line-4-path-5" class="st6"
						d="M325,0h40c2.8,0,5,2.2,5,5l0,0c0,2.8-2.2,5-5,5h-40c-2.8,0-5-2.2-5-5l0,0
					C320,2.2,322.2,0,325,0z" />
					<path id="line-4-path-4" class="st3"
						d="M235,0h70c2.8,0,5,2.2,5,5l0,0c0,2.8-2.2,5-5,5h-70c-2.8,0-5-2.2-5-5l0,0
					C230,2.2,232.2,0,235,0z" />
					<path id="line-4-path-3" class="st2"
						d="M155,0h60c2.8,0,5,2.2,5,5l0,0c0,2.8-2.2,5-5,5h-60c-2.8,0-5-2.2-5-5l0,0
					C150,2.2,152.2,0,155,0z" />
					<path id="line-4-path-2" class="st2"
						d="M45,0h90c2.8,0,5,2.2,5,5l0,0c0,2.8-2.2,5-5,5H45c-2.8,0-5-2.2-5-5l0,0
					C40,2.2,42.2,0,45,0z" />
					<path id="line-4-path-1" class="st2"
						d="M5,0h20c2.8,0,5,2.2,5,5l0,0c0,2.8-2.2,5-5,5H5c-2.8,0-5-2.2-5-5l0,0C0,2.2,2.2,0,5,0z"
					/>
				</g>
				<g id="line-3" transform="translate(70.000000, 40.000000)">
					<path id="line-3-path-7" class="st2"
						d="M435,0h100c2.8,0,5,2.2,5,5l0,0c0,2.8-2.2,5-5,5H435c-2.8,0-5-2.2-5-5l0,0
					C430,2.2,432.2,0,435,0z" />
					<path id="line-3-path-6" class="st2"
						d="M345,0h70c2.8,0,5,2.2,5,5l0,0c0,2.8-2.2,5-5,5h-70c-2.8,0-5-2.2-5-5l0,0
					C340,2.2,342.2,0,345,0z" />
					<path id="line-3-path-5" class="st5"
						d="M245,0h80c2.8,0,5,2.2,5,5l0,0c0,2.8-2.2,5-5,5h-80c-2.8,0-5-2.2-5-5l0,0
					C240,2.2,242.2,0,245,0z" />
					<path id="line-3-path-4" class="st4"
						d="M195,0h30c2.8,0,5,2.2,5,5l0,0c0,2.8-2.2,5-5,5h-30c-2.8,0-5-2.2-5-5l0,0
					C190,2.2,192.2,0,195,0z" />
					<path id="line-3-path-3" class="st2"
						d="M145,0h30c2.8,0,5,2.2,5,5l0,0c0,2.8-2.2,5-5,5h-30c-2.8,0-5-2.2-5-5l0,0
					C140,2.2,142.2,0,145,0z" />
					<path id="line-3-path-2" class="st2"
						d="M75,0h50c2.8,0,5,2.2,5,5l0,0c0,2.8-2.2,5-5,5H75c-2.8,0-5-2.2-5-5l0,0
					C70,2.2,72.2,0,75,0z" />
					<path id="line-3-path-1" class="st2"
						d="M5,0h50c2.8,0,5,2.2,5,5l0,0c0,2.8-2.2,5-5,5H5c-2.8,0-5-2.2-5-5l0,0C0,2.2,2.2,0,5,0z"
					/>
				</g>
				<g id="line-2" transform="translate(41.000000, 20.000000)">
					<path id="line-2-path-7" class="st2"
						d="M484,0h120c2.8,0,5,2.2,5,5l0,0c0,2.8-2.2,5-5,5H484c-2.8,0-5-2.2-5-5l0,0
					C479,2.2,481.2,0,484,0z" />
					<path id="line-2-path-6" class="st2"
						d="M444,0h20c2.8,0,5,2.2,5,5l0,0c0,2.8-2.2,5-5,5h-20c-2.8,0-5-2.2-5-5l0,0
					C439,2.2,441.2,0,444,0z" />
					<path id="line-2-path-5" class="st2"
						d="M374,0h50c2.8,0,5,2.2,5,5l0,0c0,2.8-2.2,5-5,5h-50c-2.8,0-5-2.2-5-5l0,0
					C369,2.2,371.2,0,374,0z" />
					<path id="line-2-path-4" class="st3"
						d="M224,0h130c2.8,0,5,2.2,5,5l0,0c0,2.8-2.2,5-5,5H224c-2.8,0-5-2.2-5-5l0,0
					C219,2.2,221.2,0,224,0z" />
					<path id="line-2-path-3" class="st2"
						d="M144,0h60c2.8,0,5,2.2,5,5l0,0c0,2.8-2.2,5-5,5h-60c-2.8,0-5-2.2-5-5l0,0
					C139,2.2,141.2,0,144,0z" />
					<path id="line-2-path-2" class="st2"
						d="M64,0h60c2.8,0,5,2.2,5,5l0,0c0,2.8-2.2,5-5,5H64c-2.8,0-5-2.2-5-5l0,0
					C59,2.2,61.2,0,64,0z" />
					<path id="line-2-path-1" class="st2"
						d="M5,0h40c2.8,0,5,2.2,5,5l0,0c0,2.8-2.2,5-5,5H5c-2.8,0-5-2.2-5-5l0,0C0,2.2,2.2,0,5,0z"
					/>
				</g>
				<g id="line-1" transform="translate(105.000000, 0.000000)" class="st0">
					<path id="line-1-path-6" class="st1"
						d="M460,0h40c2.8,0,5,2.2,5,5l0,0c0,2.8-2.2,5-5,5h-40c-2.8,0-5-2.2-5-5l0,0
					C455,2.2,457.2,0,460,0z" />
					<path id="line-1-path-5" class="st1"
						d="M310,0h130c2.8,0,5,2.2,5,5l0,0c0,2.8-2.2,5-5,5H310c-2.8,0-5-2.2-5-5l0,0
					C305,2.2,307.2,0,310,0z" />
					<path id="line-1-path-4" class="st1"
						d="M250,0h40c2.8,0,5,2.2,5,5l0,0c0,2.8-2.2,5-5,5h-40c-2.8,0-5-2.2-5-5l0,0
					C245,2.2,247.2,0,250,0z" />
					<path id="line-1-path-3" class="st1"
						d="M100,0h130c2.8,0,5,2.2,5,5l0,0c0,2.8-2.2,5-5,5H100c-2.8,0-5-2.2-5-5l0,0
					C95,2.2,97.2,0,100,0z" />
					<path id="line-1-path-2" class="st1"
						d="M70,0h10c2.8,0,5,2.2,5,5l0,0c0,2.8-2.2,5-5,5H70c-2.8,0-5-2.2-5-5l0,0
					C65,2.2,67.2,0,70,0z" />
					<path id="line-1-path-1" class="st1"
						d="M5,0h45c2.8,0,5,2.2,5,5l0,0c0,2.8-2.2,5-5,5H5c-2.8,0-5-2.2-5-5l0,0C0,2.2,2.2,0,5,0z"
					/>
				</g>
			</g>
		</g>
	</g>
</svg>